HIERARCHY
ROOT Hips
{
 OFFSET 0.000000 0.000000 0.000000
 CHANNELS 6 Xposition Yposition Zposition Yrotation Xrotation Zrotation
 JOINT Chest
 {
  OFFSET 0.000000 10.388337 0.005184
  CHANNELS 3 Yrotation Xrotation Zrotation
  JOINT Chest2
  {
   OFFSET 0.000000 10.458247 -0.010579
   CHANNELS 3 Yrotation Xrotation Zrotation
   JOINT Chest3
   {
    OFFSET 0.000000 10.415828 0.000000
    CHANNELS 3 Yrotation Xrotation Zrotation
    JOINT Chest4
    {
     OFFSET 0.000000 10.405206 0.000000
     CHANNELS 3 Yrotation Xrotation Zrotation
     JOINT Neck
     {
      OFFSET 0.000000 15.720090 0.000000
      CHANNELS 3 Yrotation Xrotation Zrotation
      JOINT Head
      {
       OFFSET 0.000000 9.732643 -0.022378
       CHANNELS 3 Yrotation Xrotation Zrotation
       End Site
       {
        OFFSET 0.000000 18.603619 -0.011814
       }
      }
     }
     JOINT RightCollar
     {
      OFFSET -3.167735 10.388953 0.000000
      CHANNELS 3 Yrotation Xrotation Zrotation
      JOINT RightShoulder
      {
       OFFSET -14.584825 0.000000 0.000000
       CHANNELS 3 Yrotation Xrotation Zrotation
       JOINT RightElbow
       {
        OFFSET 0.000000 -31.921689 0.000000
        CHANNELS 3 Yrotation Xrotation Zrotation
        JOINT RightWrist
        {
         OFFSET 0.000000 -25.835217 0.000000
         CHANNELS 3 Yrotation Xrotation Zrotation
         End Site
         {
          OFFSET 0.000000 -19.128920 0.000000
         }
        }
       }
      }
     }
     JOINT LeftCollar
     {
      OFFSET 3.167735 10.388953 0.000000
      CHANNELS 3 Yrotation Xrotation Zrotation
      JOINT LeftShoulder
      {
       OFFSET 14.584825 0.000000 0.000000
       CHANNELS 3 Yrotation Xrotation Zrotation
       JOINT LeftElbow
       {
        OFFSET 0.000000 -31.921689 0.000000
        CHANNELS 3 Yrotation Xrotation Zrotation
        JOINT LeftWrist
        {
         OFFSET 0.000000 -25.835217 0.000000
         CHANNELS 3 Yrotation Xrotation Zrotation
         End Site
         {
          OFFSET 0.000000 -19.128920 0.000000
         }
        }
       }
      }
     }
    }
   }
  }
 }
 JOINT RightHip
 {
  OFFSET -8.403278 -0.025659 -0.002592
  CHANNELS 3 Yrotation Xrotation Zrotation
  JOINT RightKnee
  {
   OFFSET 0.000000 -44.040977 0.002477
   CHANNELS 3 Yrotation Xrotation Zrotation
   JOINT RightAnkle
   {
    OFFSET 0.000000 -42.951162 0.004189
    CHANNELS 3 Yrotation Xrotation Zrotation
    JOINT RightToe
    {
     OFFSET 0.000000 -5.494238 12.197485
     CHANNELS 3 Yrotation Xrotation Zrotation
     End Site
     {
      OFFSET 0.000000 -1.538716 6.371628
     }
    }
   }
  }
 }
 JOINT LeftHip
 {
  OFFSET 8.403278 -0.025659 -0.002592
  CHANNELS 3 Yrotation Xrotation Zrotation
  JOINT LeftKnee
  {
   OFFSET 0.000000 -44.040977 0.002477
   CHANNELS 3 Yrotation Xrotation Zrotation
   JOINT LeftAnkle
   {
    OFFSET 0.000000 -42.951162 0.004189
    CHANNELS 3 Yrotation Xrotation Zrotation
    JOINT LeftToe
    {
     OFFSET 0.000000 -5.494238 12.197485
     CHANNELS 3 Yrotation Xrotation Zrotation
     End Site
     {
      OFFSET 0.000000 -1.538716 6.371628
     }
    }
   }
  }
 }
}
MOTION
Frames: 15
Frame Time: 0.008333
0.000000 92.319940 0.000000 0.000000 -5.767889 0.000000 0.000000 11.653876 0.000000 0.000000 -5.885988 0.000000 0.000000 -0.000000 0.000000 0.000000 -0.000000 0.000000 0.000000 12.528808 0.000000 0.000000 0.711711 0.000000 0.000000 -0.000000 0.000000 0.000000 0.000000 -90.000000 0.000000 -2.309063 0.000000 0.000000 2.309063 0.000000 0.000000 -0.000000 0.000000 0.000000 -0.000000 90.000000 0.000000 -2.309063 0.000000 0.000000 2.309063 0.000000 0.000000 8.520374 0.000000 0.000000 1.905768 0.000000 -0.000000 -4.658254 0.000000 0.000000 -0.000000 0.000000 0.000000 8.520374 0.000000 0.000000 1.905768 0.000000 -0.000000 -4.658254 0.000000 0.000000 -0.000000 0.000000
8.784522 93.362724 15.487872 93.343239 -7.028143 1.440450 -1.612616 3.190778 -3.234586 -0.036444 0.095387 -0.081392 -0.064891 0.169562 -0.144756 -1.347751 3.284277 -2.868159 8.846622 15.271042 0.819822 16.213680 -7.058426 -1.689121 0.529679 3.467570 0.943479 -2.077646 0.885146 -1.748649 5.373917 -9.864655 0.982285 -5.672241 -3.370193 -2.111053 1.427612 1.733561 -0.340291 -3.082338 -2.049144 6.962316 -5.573340 1.964301 -1.378258 2.265168 -1.312138 1.444421 -15.380369 -1.687567 -5.470619 -13.508318 13.824204 -2.011297 0.435429 -6.106546 2.928092 0.002668 -0.054674 -0.040012 -6.270886 12.184828 -4.569708 16.757307 -5.823542 -3.945416 1.055107 -1.104091 4.675870 -0.474017 -0.211718 -0.023089
8.802943 93.361319 15.494316 93.870267 -7.015264 1.431842 -1.728217 3.211448 -3.190432 -0.038692 0.094397 -0.079804 -0.068892 0.167817 -0.141949 -1.429908 3.262325 -2.826778 9.532313 15.106375 0.747376 17.533574 -7.283179 -2.087922 0.490705 3.572190 0.890951 -2.064314 0.881237 -1.671112 5.232124 -9.813076 0.962755 -5.818387 -3.649974 -2.299848 1.439626 1.790206 -0.360210 -2.998152 -2.180299 7.046027 -5.479663 1.953917 -1.372980 2.282120 -1.345814 1.475250 -15.598246 -1.684192 -5.492006 -13.700732 13.908176 -2.073699 0.256336 -6.153153 2.965401 0.021771 -0.088428 -0.007596 -6.383266 12.166827 -4.533970 16.705383 -5.843230 -3.973113 0.722281 -1.070238 4.597618 -0.474177 -0.190275 -0.001126
8.820868 93.359109 15.499984 94.372946 -6.975906 1.437004 -1.810173 3.205518 -3.161861 -0.040871 0.093838 -0.078456 -0.072768 0.166831 -0.139562 -1.507766 3.248924 -2.787965 10.189687 14.960303 0.667609 18.803646 -7.467925 -2.489205 0.442170 3.662669 0.840827 -2.116500 0.879476 -1.603561 5.089754 -9.793008 0.985717 -5.931421 -3.826070 -2.432584 1.438273 1.833617 -0.379342 -2.896862 -2.304862 7.128214 -5.376012 1.927769 -1.374372 2.303243 -1.377687 1.503722 -15.738201 -1.707718 -5.524846 -13.897387 13.987261 -2.125765 0.066474 -6.168787 2.998197 0.023850 -0.133998 0.025100 -6.459198 12.129277 -4.502060 16.647302 -5.870211 -4.002164 0.375425 -1.034622 4.505143 -0.467614 -0.169193 0.026107
8.843936 93.356936 15.505298 94.881001 -6.947721 1.439705 -1.887084 3.207309 -3.134147 -0.042995 0.093727 -0.077400 -0.076544 0.166632 -0.137687 -1.581180 3.244184 -2.753322 10.811990 14.823306 0.585342 20.009989 -7.632469 -2.882433 0.389372 3.739871 0.790481 -2.240354 0.887414 -1.541036 4.953850 -9.806361 1.049068 -6.012505 -3.910861 -2.518823 1.429950 1.866518 -0.395689 -2.783575 -2.426715 7.206074 -5.267304 1.891964 -1.384215 2.325807 -1.411181 1.531827 -15.831775 -1.712679 -5.559943 -14.095894 14.068534 -2.168596 -0.161219 -6.172354 3.015519 0.024937 -0.184376 0.065947 -6.535889 12.108323 -4.467340 16.577094 -5.901756 -4.031345 0.031733 -1.003724 4.401654 -0.457308 -0.145645 0.055843
8.870906 93.354941 15.509686 95.391758 -6.930764 1.436501 -1.957530 3.211757 -3.102758 -0.045005 0.093937 -0.076537 -0.080116 0.166999 -0.136150 -1.648669 3.246155 -2.721557 11.393549 14.691467 0.507093 21.139751 -7.786835 -3.253838 0.332898 3.814254 0.738585 -2.429909 0.908703 -1.480828 4.826691 -9.856624 1.145806 -6.069767 -3.920158 -2.566750 1.419868 1.898226 -0.408950 -2.667312 -2.550148 7.278878 -5.152485 1.852298 -1.404240 2.347207 -1.446336 1.558036 -15.879913 -1.700484 -5.593820 -14.299471 14.154025 -2.202926 -0.424856 -6.163317 3.016487 0.024981 -0.238563 0.113426 -6.615623 12.102700 -4.427506 16.497792 -5.936542 -4.057908 -0.311027 -0.979343 4.284192 -0.438474 -0.118939 0.089338
8.900239 93.353286 15.512751 95.901344 -6.922933 1.425606 -2.021966 3.217389 -3.063928 -0.046889 0.094437 -0.075859 -0.083460 0.167876 -0.134939 -1.709762 3.254283 -2.692962 11.933406 14.562918 0.437605 22.189406 -7.936654 -3.594484 0.280356 3.886563 0.682466 -2.683476 0.945970 -1.416078 4.710356 -9.943382 1.270472 -6.111843 -3.882779 -2.587256 1.412917 1.930118 -0.421472 -2.554417 -2.676592 7.349293 -5.028595 1.809938 -1.435098 2.364373 -1.483381 1.581872 -15.877030 -1.675535 -5.626314 -14.524659 14.248347 -2.228677 -0.711058 -6.143770 3.002099 0.023459 -0.294841 0.163803 -6.699654 12.109695 -4.380450 16.421225 -5.974121 -4.081156 -0.666645 -0.960132 4.147546 -0.404923 -0.090082 0.129875
8.929992 93.352113 15.513781 96.406282 -6.918550 1.410025 -2.079681 3.224783 -3.019267 -0.048598 0.095157 -0.075375 -0.086493 0.169141 -0.134069 -1.763140 3.267070 -2.668669 12.430529 14.436771 0.381331 23.155326 -8.085817 -3.895868 0.239013 3.953240 0.622990 -2.996981 0.999222 -1.343454 4.604115 -10.060867 1.417847 -6.141278 -3.829889 -2.587464 1.408230 1.957938 -0.433437 -2.444260 -2.805582 7.419284 -4.902861 1.763048 -1.478351 2.382242 -1.521243 1.603780 -15.815136 -1.648141 -5.663342 -14.783739 14.359579 -2.241308 -1.011922 -6.117990 2.975163 0.018296 -0.350605 0.211630 -6.792653 12.119874 -4.330049 16.354610 -6.010556 -4.100890 -1.032422 -0.945566 3.992519 -0.357329 -0.061315 0.177439
8.960737 93.351717 15.514759 96.880426 -6.921218 1.381894 -2.104451 3.244169 -2.960493 -0.049891 0.095869 -0.074968 -0.088785 0.170394 -0.133339 -1.802581 3.281108 -2.647901 12.881591 14.314255 0.341299 24.029848 -8.234457 -4.150978 0.205894 4.008520 0.562194 -3.348505 1.071473 -1.268055 4.500458 -10.201077 1.583784 -6.162620 -3.777737 -2.569208 1.392941 1.977748 -0.444336 -2.334499 -2.932470 7.491101 -4.779525 1.707930 -1.533160 2.404934 -1.555805 1.622177 -15.667526 -1.614524 -5.699862 -15.076090 14.495790 -2.232559 -1.321264 -6.095524 2.937722 0.001371 -0.399588 0.250638 -6.871985 12.134506 -4.267264 16.291972 -6.042700 -4.115963 -1.417200 -0.946180 3.814617 -0.275430 -0.020998 0.238827
8.986328 93.351740 15.512331 97.365497 -6.900101 1.361359 -2.139481 3.246128 -2.912692 -0.050657 0.096397 -0.074500 -0.090143 0.171325 -0.132502 -1.826032 3.293747 -2.628333 13.286308 14.199313 0.314850 24.812646 -8.376103 -4.363839 0.179733 4.048364 0.500197 -3.709990 1.162997 -1.200316 4.395090 -10.356975 1.764693 -6.176492 -3.730702 -2.532531 1.364688 1.986374 -0.456763 -2.230065 -3.054667 7.564746 -4.655074 1.644824 -1.595900 2.428159 -1.585602 1.637359 -15.479746 -1.615765 -5.753358 -15.393932 14.658781 -2.200895 -1.650159 -6.068698 2.884435 -0.012550 -0.447429 0.288049 -6.982136 12.118318 -4.211898 16.227139 -6.068794 -4.127080 -1.761065 -0.938203 3.640635 -0.216018 0.002470 0.287158
9.010036 93.352579 15.509874 97.835024 -6.868033 1.335934 -2.161661 3.248029 -2.860110 -0.051030 0.096723 -0.073936 -0.090804 0.171904 -0.131500 -1.838153 3.304204 -2.608689 13.648466 14.094728 0.297128 25.511929 -8.505077 -4.544095 0.158580 4.076943 0.440986 -4.044839 1.260547 -1.153506 4.281375 -10.520012 1.955083 -6.172331 -3.689426 -2.476522 1.332429 1.984181 -0.472531 -2.134203 -3.176766 7.639584 -4.532060 1.577536 -1.664107 2.449040 -1.615044 1.650466 -15.241666 -1.635287 -5.806839 -15.722461 14.846720 -2.154240 -1.988007 -6.042567 2.816312 -0.028303 -0.490467 0.324732 -7.089460 12.088559 -4.148560 16.161870 -6.088246 -4.134873 -2.100706 -0.939280 3.456346 -0.150960 0.026956 0.336895
9.033373 93.354439 15.508243 98.284304 -6.829172 1.306954 -2.169622 3.255000 -2.803967 -0.051042 0.096935 -0.073338 -0.090828 0.172284 -0.130439 -1.839491 3.314093 -2.589927 13.969285 13.997571 0.285182 26.131311 -8.626707 -4.698134 0.139852 4.092717 0.386895 -4.320923 1.354020 -1.134707 4.153347 -10.680549 2.150478 -6.147466 -3.653844 -2.406619 1.301685 1.973011 -0.490792 -2.050659 -3.303387 7.718369 -4.413937 1.509059 -1.738688 2.467680 -1.646912 1.661431 -14.970990 -1.673319 -5.859093 -16.039098 15.062298 -2.096957 -2.335015 -6.016154 2.729249 -0.044415 -0.531005 0.365309 -7.182558 12.052648 -4.078732 16.102368 -6.102947 -4.140180 -2.442012 -0.949513 3.262146 -0.084950 0.051625 0.387758
9.050803 93.356538 15.511468 98.671436 -6.745905 1.269980 -2.121656 3.226998 -2.734383 -0.050598 0.097060 -0.072701 -0.090041 0.172515 -0.129311 -1.826818 3.324725 -2.571986 14.246956 13.903064 0.279649 26.667792 -8.750824 -4.825127 0.122036 4.094591 0.337479 -4.521489 1.443038 -1.143900 4.015496 -10.833026 2.345919 -6.112418 -3.619095 -2.331475 1.272766 1.956468 -0.507032 -1.985668 -3.435135 7.796856 -4.298514 1.440915 -1.817932 2.484562 -1.680683 1.671907 -14.648881 -1.772619 -5.882018 -16.324043 15.289873 -2.026434 -2.715832 -5.959438 2.592888 -0.028228 -0.578271 0.426521 -7.207777 11.977301 -3.986818 16.052614 -6.113383 -4.144293 -2.787580 -0.973017 3.060726 -0.022988 0.080108 0.436980
9.072157 93.360126 15.515942 99.098677 -6.676564 1.233887 -2.121836 3.213903 -2.675170 -0.049702 0.097094 -0.071951 -0.088453 0.172589 -0.127986 -1.800441 3.336548 -2.552687 14.483598 13.808170 0.282812 27.124886 -8.883695 -4.922252 0.103372 4.089436 0.293272 -4.637173 1.521972 -1.181648 3.874686 -10.972732 2.532882 -6.076667 -3.575637 -2.251779 1.243804 1.943226 -0.517488 -1.936751 -3.575243 7.866482 -4.188291 1.373017 -1.896999 2.498051 -1.716209 1.684691 -14.403851 -1.872869 -5.926340 -16.552836 15.561896 -1.947074 -3.062014 -5.931537 2.452245 -0.035519 -0.617458 0.480983 -7.267846 11.916265 -3.899654 16.013327 -6.117684 -4.148472 -3.154409 -1.003196 2.849192 0.047958 0.105076 0.488433
9.102138 93.365543 15.525155 99.481332 -6.644154 1.194263 -2.083644 3.237659 -2.610478 -0.048503 0.097135 -0.071142 -0.086328 0.172676 -0.126556 -1.764329 3.350717 -2.532308 14.685493 13.711359 0.293646 27.514910 -9.027234 -4.993930 0.085818 4.081042 0.254631 -4.675801 1.586470 -1.248412 3.738792 -11.095425 2.704032 -6.041867 -3.520814 -2.166388 1.214945 1.938331 -0.524101 -1.896210 -3.726017 7.926021 -4.091274 1.303806 -1.974623 2.506513 -1.754494 1.700667 -14.180663 -1.945265 -5.973250 -16.705862 15.845513 -1.858265 -3.388188 -5.903147 2.295640 -0.042300 -0.652534 0.531907 -7.276084 11.895233 -3.805255 15.978676 -6.115722 -4.152723 -3.521996 -1.041847 2.638783 0.109652 0.128184 0.531837
